<svg xmlns="http://www.w3.org/2000/svg" width="64" height="64" viewBox="0 0 160 160" fill="none">
  <defs>
    <linearGradient id="ff-gradient" x1="0" y1="0" x2="160" y2="160" gradientUnits="userSpaceOnUse">
      <stop stop-color="#0F766E"/>
      <stop offset="1" stop-color="#0B615A"/>
    </linearGradient>
  </defs>
  <rect width="160" height="160" rx="36" fill="url(#ff-gradient)"/>

  <rect x="28" y="24" width="104" height="18" rx="8" fill="#EFE7DA" stroke="#E4DCCF"/>
  <rect x="24" y="34" width="112" height="100" rx="18" fill="#F8F5EF" stroke="#E4DCCF"/>

  <rect x="36" y="130" width="88" height="6" rx="3" fill="#EFE7DA"/>

  <rect x="40" y="56" width="10" height="10" rx="3" fill="#0F766E"/>
  <rect x="56" y="56" width="10" height="10" rx="3" fill="#0F766E"/>
  <rect x="72" y="56" width="10" height="10" rx="3" fill="#0F766E"/>
  <rect x="40" y="72" width="10" height="10" rx="3" fill="#0F766E"/>
  <rect x="40" y="88" width="10" height="10" rx="3" fill="#0F766E"/>
  <rect x="56" y="88" width="10" height="10" rx="3" fill="#0F766E"/>
  <rect x="40" y="104" width="10" height="10" rx="3" fill="#0F766E"/>
  <rect x="40" y="120" width="10" height="10" rx="3" fill="#0F766E"/>

  <rect x="92" y="56" width="10" height="10" rx="3" fill="#0F766E"/>
  <rect x="92" y="72" width="10" height="10" rx="3" fill="#0F766E"/>
  <rect x="92" y="88" width="10" height="10" rx="3" fill="#0F766E"/>
  <rect x="92" y="104" width="10" height="10" rx="3" fill="#0F766E"/>
  <rect x="92" y="120" width="10" height="10" rx="3" fill="#0F766E"/>
  <rect x="108" y="120" width="10" height="10" rx="3" fill="#0F766E"/>
  <rect x="124" y="120" width="10" height="10" rx="3" fill="#0F766E"/>
</svg>
