<svg xmlns="http://www.w3.org/2000/svg" width="720" height="460" viewBox="0 0 720 460" fill="none">
  <defs>
    <linearGradient id="panel" x1="0" y1="0" x2="0" y2="1">
      <stop stop-color="#FFFFFF"/>
      <stop offset="1" stop-color="#F6F2EA"/>
    </linearGradient>
    <linearGradient id="accent" x1="0" y1="0" x2="1" y2="1">
      <stop stop-color="#0F766E"/>
      <stop offset="1" stop-color="#CA8A04"/>
    </linearGradient>
  </defs>

  <rect x="18" y="18" width="684" height="424" rx="32" fill="url(#panel)" stroke="#E6DDD0"/>

  <rect x="56" y="60" width="300" height="200" rx="20" fill="#FFFFFF" stroke="#E8E0D4"/>
  <rect x="392" y="60" width="260" height="120" rx="18" fill="#FFFFFF" stroke="#E8E0D4"/>
  <rect x="392" y="202" width="260" height="200" rx="20" fill="#FFFFFF" stroke="#E8E0D4"/>

  <rect x="84" y="92" width="180" height="18" rx="9" fill="#EDE7DD"/>
  <rect x="84" y="124" width="230" height="14" rx="7" fill="#EFE9E0"/>

  <rect x="84" y="170" width="44" height="72" rx="10" fill="#DCECE9"/>
  <rect x="140" y="150" width="44" height="92" rx="10" fill="#B9E2DC"/>
  <rect x="196" y="136" width="44" height="106" rx="10" fill="#8FD0C6"/>
  <rect x="252" y="118" width="44" height="124" rx="10" fill="url(#accent)"/>

  <path
    d="M420 146 L462 122 L508 134 L548 106 L598 120"
    stroke="#0F766E"
    stroke-width="4"
    stroke-linecap="round"
    stroke-linejoin="round"
  />
  <circle cx="420" cy="146" r="6" fill="#0F766E"/>
  <circle cx="462" cy="122" r="6" fill="#0F766E"/>
  <circle cx="508" cy="134" r="6" fill="#0F766E"/>
  <circle cx="548" cy="106" r="6" fill="#0F766E"/>
  <circle cx="598" cy="120" r="6" fill="#0F766E"/>

  <rect x="420" y="226" width="140" height="22" rx="11" fill="#EFE9E0"/>
  <rect x="420" y="258" width="200" height="14" rx="7" fill="#F2ECE4"/>

  <rect x="420" y="300" width="200" height="12" rx="6" fill="#F4EFE8"/>
  <rect x="420" y="324" width="180" height="12" rx="6" fill="#F4EFE8"/>
  <rect x="420" y="348" width="160" height="12" rx="6" fill="#F4EFE8"/>
  <rect x="420" y="372" width="120" height="12" rx="6" fill="#F4EFE8"/>
</svg>
