<?xml version="1.0" encoding="UTF-8"?>
<svg version="1.1" xmlns="http://www.w3.org/2000/svg" width="1024" height="1024">
<path d="M0 0 C337.92 0 675.84 0 1024 0 C1024 337.92 1024 675.84 1024 1024 C686.08 1024 348.16 1024 0 1024 C0 686.08 0 348.16 0 0 Z " fill="#FCFBFB" transform="translate(0,0)"/>
<path d="M0 0 C1.10431366 -0.0096579 2.20862732 -0.0193158 3.34640503 -0.02926636 C6.90284608 -0.05399657 10.45910736 -0.06664711 14.015625 -0.07421875 C15.82942657 -0.07864487 15.82942657 -0.07864487 17.67987061 -0.0831604 C39.47145478 -0.09527789 60.257155 1.03910851 81.43847656 6.51733398 C83.97859811 7.16508692 86.52043764 7.75315433 89.08203125 8.30859375 C117.2974832 14.51073362 144.81053613 24.79705859 170.37353516 38.24951172 C172.32130638 39.26737926 174.2820541 40.25612056 176.24609375 41.2421875 C193.26939187 49.89028979 209.44735435 60.19314411 224.265625 72.23828125 C225.10609375 72.89957031 225.9465625 73.56085938 226.8125 74.2421875 C236.06214078 81.53290754 245.25480884 88.95418789 253.453125 97.42578125 C255.25322013 99.22587638 257.12826114 100.85291156 259.078125 102.48828125 C264.62383709 107.27579052 269.4259547 112.75678487 274.265625 118.23828125 C274.70777344 118.73569824 275.14992188 119.23311523 275.60546875 119.74560547 C310.9402754 159.70696507 336.61327952 209.49701059 349.265625 261.23828125 C349.53890625 262.34977539 349.8121875 263.46126953 350.09375 264.60644531 C370.72705534 350.61910377 353.21329055 442.59632089 307.8762207 517.87792969 C300.48761914 529.92211926 292.26620636 541.34868899 283.265625 552.23828125 C282.61851562 553.058125 281.97140625 553.87796875 281.3046875 554.72265625 C266.48297965 573.34621481 249.31162126 589.98949222 230.265625 604.23828125 C229.60256348 604.74182129 228.93950195 605.24536133 228.25634766 605.76416016 C197.71127953 628.89530771 163.14083699 645.20319199 126.52636719 656.25 C124.35804442 656.90718558 122.1944894 657.58031911 120.03613281 658.26953125 C112.31315563 660.72482651 104.57124151 662.64378649 96.640625 664.30078125 C95.42076904 664.55827148 94.20091309 664.81576172 92.9440918 665.08105469 C83.09238413 667.12941027 73.23692496 668.89296522 63.265625 670.23828125 C62.20674072 670.38475098 62.20674072 670.38475098 61.12646484 670.53417969 C-26.12464137 682.41296884 -120.9886503 660.74311694 -191.5546875 607.3671875 C-194.9998076 604.71999746 -198.37887017 601.99783549 -201.734375 599.23828125 C-202.54116699 598.57795898 -202.54116699 598.57795898 -203.36425781 597.90429688 C-214.0597266 589.11437951 -225.03300446 580.04099849 -233.91015625 569.375 C-235.86397448 567.08648058 -237.91499068 564.90267139 -239.98046875 562.71508789 C-246.3987741 555.89563846 -252.19601442 548.78413099 -257.734375 541.23828125 C-258.14397461 540.6855957 -258.55357422 540.13291016 -258.97558594 539.56347656 C-302.18255198 481.11096122 -324.02029748 410.7415491 -323.921875 338.30078125 C-323.92127075 337.46867126 -323.9206665 336.63656128 -323.92004395 335.77923584 C-323.89651049 323.810751 -323.60612252 312.0792827 -321.734375 300.23828125 C-321.60015137 299.32546387 -321.46592773 298.41264648 -321.32763672 297.47216797 C-319.266136 283.50281813 -316.52339441 269.84015683 -312.734375 256.23828125 C-312.49380371 255.35914063 -312.25323242 254.48 -312.00537109 253.57421875 C-306.12928799 232.35230061 -298.11037804 211.65573727 -287.76757812 192.19873047 C-286.62305794 190.02706292 -285.51402805 187.83906407 -284.40625 185.6484375 C-276.21746304 169.58500308 -266.44985774 154.71923635 -255.734375 140.23828125 C-255.3233252 139.68156738 -254.91227539 139.12485352 -254.48876953 138.55126953 C-249.40883911 131.7099263 -244.07357521 125.20481776 -238.25390625 118.96875 C-236.30572808 116.85746854 -234.42525034 114.72123849 -232.5546875 112.54296875 C-228.18835947 107.53479344 -223.50389647 102.86161582 -218.796875 98.17578125 C-217.94158203 97.31662109 -217.08628906 96.45746094 -216.20507812 95.57226562 C-209.21099196 88.58884931 -201.96411283 82.06574112 -194.171875 75.98828125 C-193.57673096 75.52357422 -192.98158691 75.05886719 -192.3684082 74.58007812 C-175.95204798 61.82967369 -158.98199649 50.23062279 -140.6953125 40.31347656 C-138.80801754 39.27865995 -136.94259294 38.21198862 -135.078125 37.13671875 C-95.10236004 14.52055531 -45.96083531 0.33602924 0 0 Z " fill="#D1D5DB" transform="translate(496.734375,156.76171875)"/>
<path d="M0 0 C1.09991272 0.47342834 1.09991272 0.47342834 2.2220459 0.9564209 C4.49973167 1.94350336 6.7663987 2.9526035 9.03125 3.96875 C9.72138184 4.27586914 10.41151367 4.58298828 11.12255859 4.89941406 C15.94384612 7.04968278 20.7390116 9.25467794 25.53125 11.46875 C27.82003977 12.52146078 30.10938246 13.57296317 32.39872742 14.62446594 C33.95873148 15.34110632 35.51855613 16.05813736 37.07820129 16.77555847 C44.42008188 20.15200675 51.77617448 23.49679254 59.13516235 26.83575439 C75.50504339 34.26411989 91.87279064 41.69787999 108.16796875 49.2890625 C108.77529343 49.57193115 109.3826181 49.8547998 110.00834656 50.14624023 C110.9208593 50.57126831 110.9208593 50.57126831 111.85180664 51.00488281 C112.46041534 51.28835571 113.06902405 51.57182861 113.69607544 51.8638916 C115.51155967 52.70957788 117.32694736 53.5554714 119.14233398 54.40136719 C125.3652534 57.29323797 131.60200979 60.13381107 137.90625 62.84375 C143.68610337 65.32849109 149.29279294 68.07874693 154.8984375 70.93359375 C163.34062509 75.15468755 172.00057335 78.94737891 180.59619141 82.84301758 C181.39976074 83.21450928 182.20333008 83.58600098 183.03125 83.96875 C183.77681152 84.24420654 184.52237305 84.51966309 185.29052734 84.8034668 C187.03125 85.96875 187.03125 85.96875 187.63168812 88.00977993 C188.1486589 91.83822586 188.1724633 95.62260132 188.16496277 99.47755432 C188.16722833 100.33246663 188.16949388 101.18737893 188.17182809 102.06819767 C188.17815613 104.93162795 188.1773395 107.79501076 188.17651367 110.65844727 C188.17950583 112.71178244 188.18290849 114.76511706 188.18669128 116.81845093 C188.19552776 122.39469487 188.1978692 127.97092347 188.19850707 133.54717374 C188.19945634 138.19958373 188.20313468 142.85199015 188.20667917 147.50439876 C188.21482169 158.47648579 188.21726351 169.4485646 188.21655273 180.4206543 C188.21595136 191.7490654 188.22651562 203.07742898 188.2422964 214.40582806 C188.25535634 224.12650768 188.26073731 233.84717173 188.26009732 243.56786007 C188.25984197 249.37615978 188.26271422 255.18441722 188.27327538 260.99270821 C188.28293085 266.45179366 188.28305312 271.91079618 188.27575874 277.36988449 C188.27470986 279.37584364 188.27709371 281.38180788 188.2831192 283.38775826 C188.29079893 286.12091389 188.28622114 288.85378024 188.27848816 291.58692932 C188.28363172 292.38507555 188.28877529 293.18322178 188.29407471 294.00555426 C188.25127616 300.82636293 188.25127616 300.82636293 186.03125 303.96875 C184.13378906 305.33398438 184.13378906 305.33398438 181.796875 306.5625 C180.92522705 307.02865723 180.0535791 307.49481445 179.15551758 307.97509766 C178.20700928 308.46800293 177.25850098 308.9609082 176.28125 309.46875 C174.24847022 310.54905082 172.21592396 311.62979116 170.18359375 312.7109375 C169.14831543 313.25717773 168.11303711 313.80341797 167.04638672 314.36621094 C164.31949155 315.8155502 161.61097616 317.2918401 158.91015625 318.7890625 C143.79326313 327.16759501 128.40976136 335.01286193 113.02796936 342.88946533 C107.59462363 345.67409369 102.17863273 348.48995459 96.78125 351.34375 C96.05929443 351.72539307 95.33733887 352.10703613 94.59350586 352.50024414 C93.15440113 353.2612826 91.71535461 354.02243116 90.27636719 354.78369141 C73.11617729 363.84149499 55.85743177 372.71045746 38.6020813 381.58505249 C34.09193296 383.90561432 29.58502891 386.23236027 25.08041382 388.56364441 C22.04520903 390.13440785 19.00916301 391.70354163 15.9730835 393.27261353 C14.52332694 394.02244097 13.07397904 394.7730591 11.62506104 395.52450562 C9.61048451 396.56919965 7.59446588 397.61106015 5.578125 398.65234375 C4.43182617 399.24587646 3.28552734 399.83940918 2.10449219 400.45092773 C-5.54403888 404.22840769 -5.54403888 404.22840769 -10.96875 402.96875 C-10.97021656 401.83346233 -10.97168312 400.69817467 -10.97319412 399.52848434 C-11.00975724 371.92942638 -11.06916486 344.33049006 -11.15265274 316.73153305 C-11.19249535 303.3849807 -11.22486129 290.03849893 -11.23974609 276.69189453 C-11.25273556 265.06165742 -11.27963087 253.43155074 -11.32336307 241.80138707 C-11.34603876 235.64087584 -11.36165702 229.48052585 -11.36063385 223.31996918 C-11.35989085 217.52512948 -11.37769663 211.73064705 -11.40991783 205.93589973 C-11.41845804 203.8057957 -11.42013903 201.67565178 -11.41455269 199.54553795 C-11.40795324 196.64319748 -11.42573591 193.74200728 -11.44976807 190.83978271 C-11.44200765 189.99153451 -11.43424723 189.1432863 -11.42625165 188.2693336 C-11.4797967 184.63127058 -11.60839752 182.44683639 -13.8324852 179.49609756 C-16.34773444 177.69779063 -18.76372295 176.62398244 -21.65625 175.53125 C-26.25181618 173.71426824 -30.49392087 171.70427711 -34.73828125 169.1796875 C-37.09203432 167.85572332 -37.09203432 167.85572332 -40.19042969 166.60107422 C-43.75270483 165.08656865 -47.20048871 163.39427976 -50.65234375 161.640625 C-51.9155889 161.00191568 -53.17893903 160.36341397 -54.44238281 159.72509766 C-55.09098267 159.39664856 -55.73958252 159.06819946 -56.40783691 158.72979736 C-67.46007953 153.13819029 -78.53217767 147.73962781 -89.96875 142.96875 C-90.62875 142.63875 -91.28875 142.30875 -91.96875 141.96875 C-91.96875 141.30875 -91.96875 140.64875 -91.96875 139.96875 C-92.505 139.845 -93.04125 139.72125 -93.59375 139.59375 C-99.04785784 138.15845846 -103.98937861 136.08849864 -108.99609375 133.51953125 C-110.42165583 132.7975774 -111.84727751 132.07574125 -113.27294922 131.35400391 C-114.03178406 130.96811096 -114.7906189 130.58221802 -115.57244873 130.18463135 C-119.82294726 128.02793179 -124.0861327 125.89652619 -128.34765625 123.76171875 C-129.24885696 123.30981171 -130.15005768 122.85790466 -131.0785675 122.39230347 C-156.64707631 109.56487976 -156.64707631 109.56487976 -182.42578125 97.16748047 C-187.26039798 94.88848967 -192.08185813 92.58178333 -196.90625 90.28125 C-199.92682638 88.84320976 -202.94773469 87.40586789 -205.96875 85.96875 C-204.96875 82.96875 -204.96875 82.96875 -203.09985352 81.87231445 C-202.27412842 81.529021 -201.44840332 81.18572754 -200.59765625 80.83203125 C-199.64769775 80.42766846 -198.69773926 80.02330566 -197.71899414 79.60668945 C-196.66703857 79.16929443 -195.61508301 78.73189941 -194.53125 78.28125 C-192.24821174 77.30626014 -189.96706211 76.32683978 -187.6875 75.34375 C-187.07789932 75.08108841 -186.46829865 74.81842682 -185.84022522 74.54780579 C-177.98592113 71.14165165 -170.2647352 67.45120032 -162.53125 63.78125 C-144.74447255 55.35468581 -144.74447255 55.35468581 -136.96875 51.96875 C-129.33127828 48.64143197 -121.81096557 45.07450057 -114.28393555 41.50671387 C-99.91678235 34.69789079 -85.46068343 28.12837282 -70.91552734 21.70922852 C-61.81074286 17.68911331 -52.74613345 13.59758284 -43.71875 9.40625 C-41.65368986 8.45172766 -39.58858789 7.4972958 -37.5234375 6.54296875 C-34.82999031 5.29739886 -32.13846212 4.0487289 -29.45410156 2.78369141 C-27.25651392 1.74875443 -25.05154915 0.73166884 -22.84375 -0.28125 C-21.68617188 -0.82265625 -20.52859375 -1.3640625 -19.3359375 -1.921875 C-12.12550683 -4.29746933 -6.66833568 -2.99034351 0 0 Z " fill="#F2F2F2" transform="translate(523.96875,258.03125)"/>
<path d="M0 0 C0.33 0.66 0.66 1.32 1 2 C2.175625 2.37125 3.35125 2.7425 4.5625 3.125 C8.83444865 4.48275112 12.76753196 6.27695876 16.75 8.3125 C24.03076781 12.03093262 31.37607014 15.59500919 38.75 19.125 C47.90934318 23.51460324 57.0204929 27.99351285 66.09765625 32.55078125 C67.54490585 33.27705719 67.54490585 33.27705719 69.02139282 34.01800537 C73.82382237 36.4296189 78.62319648 38.84710251 83.41894531 41.27197266 C93.81676313 46.51309247 104.26719977 51.48147684 115 56 C115 56.66 115 57.32 115 58 C115.85335937 58.27328125 116.70671875 58.5465625 117.5859375 58.828125 C135.74759686 65.06210419 152.8527119 74.82787143 169.9375 83.5078125 C171.29137801 84.19327876 172.64552074 84.87822257 174 85.5625 C174.61447998 85.87405029 175.22895996 86.18560059 175.86206055 86.5065918 C180.6744766 88.91445494 185.59930957 90.93188271 190.64453125 92.796875 C193.52917669 94.27029257 194.41962236 95.15526223 196 98 C196.29094781 101.02173797 196.40743072 103.83619268 196.38526917 106.85757446 C196.39050486 107.7620461 196.39574056 108.66651774 196.40113491 109.59839761 C196.41512764 112.6355575 196.40778704 115.67229439 196.40063477 118.70947266 C196.40637539 120.88413369 196.41345737 123.05879154 196.42178345 125.23344421 C196.43691225 129.9190224 196.44266948 134.60448652 196.44125557 139.29008865 C196.43922613 146.69251116 196.45875913 154.0947796 196.48143005 161.49716187 C196.52053345 175.20094168 196.53957688 188.90470984 196.555273 202.60853288 C196.57731174 221.57845858 196.61150122 240.54835635 196.66480106 259.51822126 C196.68477912 266.8837185 196.6943064 274.2491353 196.69575322 281.61465859 C196.69849441 286.18720658 196.70930402 290.75970981 196.72226334 295.33223915 C196.72655999 297.45997391 196.72739168 299.58771876 196.72458839 301.71545601 C196.72121193 304.60920612 196.7299139 307.50267088 196.74171448 310.39639282 C196.73773338 311.24773823 196.73375229 312.09908365 196.72965056 312.9762274 C196.5696895 317.46134279 196.5696895 317.46134279 199 321 C193.71878115 321.48737421 190.61192738 319.99648261 186.3125 317.1875 C184.97493852 316.35129467 183.63634834 315.51673314 182.296875 314.68359375 C181.59498047 314.24257324 180.89308594 313.80155273 180.16992188 313.34716797 C176.51001849 311.07496423 172.7902932 308.90848529 169.0625 306.75 C168.27866943 306.2960083 167.49483887 305.8420166 166.68725586 305.37426758 C151.36071267 296.55727875 135.70149035 288.31241595 120.05419922 280.08154297 C117.95264496 278.97506741 115.85312385 277.86480782 113.75390625 276.75390625 C106.49108314 272.91564719 99.21537904 269.1047169 91.91015625 265.34765625 C90.97346603 264.86534546 90.97346603 264.86534546 90.01785278 264.37329102 C86.93140379 262.78406976 83.84362551 261.19766009 80.75292969 259.61669922 C74.47108535 256.38501409 68.27025875 253.05413327 62.12890625 249.5625 C54.75922769 245.37569558 47.26899559 241.46584806 39.71392822 237.62585449 C29.8100293 232.58434311 19.90226713 227.53329699 10.125 222.25 C9.06659912 221.69614624 9.06659912 221.69614624 7.98681641 221.13110352 C3.97249841 218.92552982 1.90081673 217.16130332 0 213 C-0.27802826 210.03119541 -0.39259093 207.2779246 -0.36076355 204.31242371 C-0.36332682 203.43835493 -0.3658901 202.56428615 -0.36853105 201.66373044 C-0.37347162 198.73551207 -0.3569714 195.80780953 -0.34057617 192.87963867 C-0.33972996 190.7804058 -0.34020493 188.68117205 -0.34190369 186.5819397 C-0.34276529 180.8819267 -0.32511267 175.18210266 -0.30418181 169.48213363 C-0.28544261 163.52572189 -0.28366674 157.56930593 -0.28010559 151.61286926 C-0.27077704 140.33300836 -0.24615222 129.05323457 -0.21605712 117.77341205 C-0.18253838 104.93195654 -0.16603345 92.09049689 -0.15097082 79.24900854 C-0.11960343 52.83262404 -0.06682712 26.4163169 0 0 Z " fill="#8D8D8D" transform="translate(317,342)"/>
<path d="M0 0 C1.09991272 0.47342834 1.09991272 0.47342834 2.2220459 0.9564209 C4.49973167 1.94350336 6.7663987 2.9526035 9.03125 3.96875 C9.72138184 4.27586914 10.41151367 4.58298828 11.12255859 4.89941406 C15.94384612 7.04968278 20.7390116 9.25467794 25.53125 11.46875 C27.82003977 12.52146078 30.10938246 13.57296317 32.39872742 14.62446594 C33.95873148 15.34110632 35.51855613 16.05813736 37.07820129 16.77555847 C44.42008188 20.15200675 51.77617448 23.49679254 59.13516235 26.83575439 C75.50504339 34.26411989 91.87279064 41.69787999 108.16796875 49.2890625 C108.77529343 49.57193115 109.3826181 49.8547998 110.00834656 50.14624023 C110.9208593 50.57126831 110.9208593 50.57126831 111.85180664 51.00488281 C112.46041534 51.28835571 113.06902405 51.57182861 113.69607544 51.8638916 C115.51155967 52.70957788 117.32694736 53.5554714 119.14233398 54.40136719 C125.3652534 57.29323797 131.60200979 60.13381107 137.90625 62.84375 C143.68674347 65.32876627 149.29471326 68.07713032 154.8984375 70.9375 C161.45092314 74.215429 168.16957431 77.1604889 174.85742188 80.14941406 C175.85580078 80.60026367 176.85417969 81.05111328 177.8828125 81.515625 C178.77822754 81.91620117 179.67364258 82.31677734 180.59619141 82.72949219 C182.9714257 83.93830402 184.95656524 85.30393168 187.03125 86.96875 C185.85691406 87.32582031 184.68257812 87.68289063 183.47265625 88.05078125 C177.12123966 90.17122879 171.07155622 92.96325138 164.98657227 95.73706055 C162.99943868 96.64227022 161.00883274 97.5394453 159.01757812 98.43554688 C151.66813633 101.75860734 144.41647066 105.23716995 137.21647644 108.87213135 C128.97276183 113.02576396 120.62497437 116.95854939 112.28125 120.90625 C110.52517388 121.73857426 108.76915283 122.57101471 107.01318359 123.40356445 C101.68712415 125.92794109 96.35936655 128.44871876 91.03125 130.96875 C90.22490112 131.35023193 89.41855225 131.73171387 88.58776855 132.12475586 C72.16074445 139.8962985 55.72323827 147.64543694 39.27825928 155.37890625 C29.18912082 160.12368506 19.1004508 164.8692529 9.03125 169.65625 C7.84994507 170.21687134 7.84994507 170.21687134 6.64477539 170.78881836 C5.18446869 171.48464997 3.72595764 172.18426636 2.26953125 172.88818359 C0.62562009 173.68180824 -1.0236237 174.46441125 -2.67578125 175.24072266 C-3.57683594 175.67304199 -4.47789062 176.10536133 -5.40625 176.55078125 C-6.22996094 176.94112549 -7.05367187 177.33146973 -7.90234375 177.73364258 C-10.26199672 178.94320883 -10.26199672 178.94320883 -11.96875 181.96875 C-12.51144531 181.35902344 -13.05414063 180.74929688 -13.61328125 180.12109375 C-16.21647909 177.74238395 -18.37119099 176.77227229 -21.65625 175.53125 C-26.25181618 173.71426824 -30.49392087 171.70427711 -34.73828125 169.1796875 C-37.09203432 167.85572332 -37.09203432 167.85572332 -40.19042969 166.60107422 C-43.75270483 165.08656865 -47.20048871 163.39427976 -50.65234375 161.640625 C-51.9155889 161.00191568 -53.17893903 160.36341397 -54.44238281 159.72509766 C-55.09098267 159.39664856 -55.73958252 159.06819946 -56.40783691 158.72979736 C-67.46007953 153.13819029 -78.53217767 147.73962781 -89.96875 142.96875 C-90.62875 142.63875 -91.28875 142.30875 -91.96875 141.96875 C-91.96875 141.30875 -91.96875 140.64875 -91.96875 139.96875 C-92.505 139.845 -93.04125 139.72125 -93.59375 139.59375 C-99.04785784 138.15845846 -103.98937861 136.08849864 -108.99609375 133.51953125 C-110.42165583 132.7975774 -111.84727751 132.07574125 -113.27294922 131.35400391 C-114.03178406 130.96811096 -114.7906189 130.58221802 -115.57244873 130.18463135 C-119.82294726 128.02793179 -124.0861327 125.89652619 -128.34765625 123.76171875 C-129.24885696 123.30981171 -130.15005768 122.85790466 -131.0785675 122.39230347 C-156.64707631 109.56487976 -156.64707631 109.56487976 -182.42578125 97.16748047 C-187.26039798 94.88848967 -192.08185813 92.58178333 -196.90625 90.28125 C-199.92682638 88.84320976 -202.94773469 87.40586789 -205.96875 85.96875 C-204.96875 82.96875 -204.96875 82.96875 -203.09985352 81.87231445 C-202.27412842 81.529021 -201.44840332 81.18572754 -200.59765625 80.83203125 C-199.64769775 80.42766846 -198.69773926 80.02330566 -197.71899414 79.60668945 C-196.66703857 79.16929443 -195.61508301 78.73189941 -194.53125 78.28125 C-192.24821174 77.30626014 -189.96706211 76.32683978 -187.6875 75.34375 C-187.07789932 75.08108841 -186.46829865 74.81842682 -185.84022522 74.54780579 C-177.98592113 71.14165165 -170.2647352 67.45120032 -162.53125 63.78125 C-144.74447255 55.35468581 -144.74447255 55.35468581 -136.96875 51.96875 C-129.33127828 48.64143197 -121.81096557 45.07450057 -114.28393555 41.50671387 C-99.91678235 34.69789079 -85.46068343 28.12837282 -70.91552734 21.70922852 C-61.81074286 17.68911331 -52.74613345 13.59758284 -43.71875 9.40625 C-41.65368986 8.45172766 -39.58858789 7.4972958 -37.5234375 6.54296875 C-34.82999031 5.29739886 -32.13846212 4.0487289 -29.45410156 2.78369141 C-27.25651392 1.74875443 -25.05154915 0.73166884 -22.84375 -0.28125 C-21.68617188 -0.82265625 -20.52859375 -1.3640625 -19.3359375 -1.921875 C-12.12550683 -4.29746933 -6.66833568 -2.99034351 0 0 Z " fill="#E7E6E6" transform="translate(523.96875,258.03125)"/>
<path d="M0 0 C1.44245638 0.39917032 2.87888841 0.82014517 4.3125 1.25 C5.11300781 1.48203125 5.91351563 1.7140625 6.73828125 1.953125 C9.6358568 3.29431714 10.43942689 4.18987529 12 7 C12.29523158 10.03797775 12.41601056 12.87085042 12.39872742 15.90899658 C12.40537424 16.81896291 12.41202107 17.72892923 12.41886932 18.66647029 C12.43755343 21.7220958 12.43489037 24.77733161 12.43237305 27.83300781 C12.44138689 30.02076778 12.45171317 32.20852267 12.46325684 34.39627075 C12.49089722 40.34213849 12.50012093 46.28791059 12.50611091 52.23383427 C12.51547625 58.44521456 12.54167812 64.6565229 12.56611633 70.86785889 C12.60486534 81.29535715 12.63319719 91.72284106 12.65356445 102.15039062 C12.67457101 112.89065314 12.70184326 123.63086961 12.73754883 134.37109375 C12.74084707 135.36418694 12.74084707 135.36418694 12.74421193 136.37734261 C12.75528151 139.69872424 12.76648105 143.02010542 12.77772844 146.34148645 C12.87065259 173.8942852 12.94229774 201.44710658 13 229 C12.01 229 11.02 229 10 229 C8.98889019 217.13515793 8.89826021 205.36675294 8.98168945 193.46630859 C8.99181597 191.44268044 9.00138773 189.41904945 9.01045227 187.39541626 C9.03042066 183.06909938 9.05312104 178.74280864 9.07766151 174.41651535 C9.11528394 167.57536042 9.13953329 160.73419824 9.16069031 153.89297485 C9.1643277 152.73488764 9.16796508 151.57680043 9.1717127 150.38361967 C9.1791166 148.01767359 9.1864891 145.65172742 9.19383085 143.28578115 C9.24371358 127.37903917 9.30242292 111.472459 9.39770508 95.56591797 C9.46206729 84.80434862 9.50526861 74.0429251 9.52386063 63.28117621 C9.53454334 57.59406556 9.55619884 51.90746266 9.60381508 46.22053146 C9.64835285 40.88347661 9.6651125 35.54706671 9.66035271 30.20983505 C9.66360446 28.25100689 9.67718117 26.29216493 9.7017746 24.33348846 C9.73381391 21.66181415 9.72894559 18.99266303 9.71479797 16.32089233 C9.73295714 15.54415299 9.75111631 14.76741364 9.76982576 13.96713674 C9.72398347 11.06078373 9.59383663 8.72033414 7.69989812 6.42295384 C5.05568662 4.16831152 2.19929561 2.35354814 -1 1 C-0.67 0.67 -0.34 0.34 0 0 Z " fill="#B6B6B7" transform="translate(501,433)"/>
<path d="M0 0 C0.99 0.495 0.99 0.495 2 1 C-6.96036292 6.06094572 -15.92446424 11.05159027 -25.15942383 15.59643555 C-31.88178406 18.91463382 -38.54497793 22.34631908 -45.2046814 25.78799438 C-46.51733573 26.46623179 -47.83033971 27.14379296 -49.14370728 27.82064819 C-51.00686977 28.7810287 -52.86883727 29.74368696 -54.73046875 30.70703125 C-56.36085083 31.54971558 -56.36085083 31.54971558 -58.02416992 32.40942383 C-60.7394241 33.86072262 -63.36872201 35.40319794 -66 37 C-67.74126221 37.89226169 -69.49203741 38.76610971 -71.25 39.625 C-75.55879073 41.75566273 -79.81802931 43.95662353 -84.05224609 46.23022461 C-90.68647385 49.78703846 -97.35897501 53.26254506 -104.125 56.5625 C-104.81102295 56.90909668 -105.4970459 57.25569336 -106.20385742 57.61279297 C-110.63345407 59.73391648 -113.98958437 60.35788683 -119 60 C-119 59.67 -119 59.34 -119 59 C-118.47067871 58.83927002 -117.94135742 58.67854004 -117.39599609 58.51293945 C-111.21077175 56.55309811 -105.45590283 54.01955047 -99.625 51.1875 C-98.62952148 50.70740479 -97.63404297 50.22730957 -96.60839844 49.73266602 C-86.1865271 44.66805044 -75.91808758 39.31374651 -65.65075684 33.94476318 C-57.16803615 29.51374967 -48.6484565 25.15382981 -40.13223267 20.78765869 C-32.49626976 16.87269719 -24.86855605 12.94570505 -17.28515625 8.9296875 C-16.12000488 8.31488525 -14.95485352 7.70008301 -13.75439453 7.06665039 C-11.59419651 5.92422269 -9.43742248 4.77528939 -7.28466797 3.61889648 C-6.34381348 3.12204346 -5.40295898 2.62519043 -4.43359375 2.11328125 C-3.61947021 1.67798096 -2.80534668 1.24268066 -1.96655273 0.79418945 C-1.31759033 0.53210693 -0.66862793 0.27002441 0 0 Z " fill="#D1D5DB" transform="translate(630,604)"/>
<path d="M0 0 C-0.33 0.66 -0.66 1.32 -1 2 C-5.19706277 2.7363268 -9.18186397 3.04608992 -13.4375 3 C-14.613125 3 -15.78875 3 -17 3 C-17.33 3.33 -17.66 3.66 -18 4 C-20.33944736 3.71269945 -22.6739143 3.38063221 -25 3 C-25 2.34 -25 1.68 -25 1 C-16.64399592 -0.10102642 -8.41192037 -0.10094304 0 0 Z " fill="#D1D5DB" transform="translate(500,157)"/>
<path d="M0 0 C0.66 0.33 1.32 0.66 2 1 C-0.97738356 2.70923871 -3.98300428 4.36173888 -7 6 C-8.1446875 6.62390625 -9.289375 7.2478125 -10.46875 7.890625 C-11.68670614 8.532758 -12.90545571 9.17338838 -14.125 9.8125 C-15.83042969 10.71935547 -15.83042969 10.71935547 -17.5703125 11.64453125 C-21.30157934 13.1191891 -24.02534078 13.25789774 -28 13 C-28 12.67 -28 12.34 -28 12 C-27.19840454 11.75781738 -27.19840454 11.75781738 -26.38061523 11.51074219 C-19.40269179 9.30615568 -13.02385694 6.22917454 -6.49023438 2.96484375 C-5.68005859 2.56910156 -4.86988281 2.17335938 -4.03515625 1.765625 C-3.3069165 1.40243164 -2.57867676 1.03923828 -1.82836914 0.66503906 C-1.22500732 0.44557617 -0.62164551 0.22611328 0 0 Z " fill="#D1D5DB" transform="translate(539,651)"/>
<path d="M0 0 C-3.0149222 1.63614405 -6.03789947 3.25682757 -9.0625 4.875 C-9.91005859 5.33519531 -10.75761719 5.79539062 -11.63085938 6.26953125 C-16.3714261 8.79539306 -20.7671902 10.76457408 -26 12 C-22.4011572 8.02217938 -17.73677176 6.11171437 -13 3.75 C-11.62714844 3.04230469 -11.62714844 3.04230469 -10.2265625 2.3203125 C-9.34742188 1.87945313 -8.46828125 1.43859375 -7.5625 0.984375 C-6.35787109 0.37674316 -6.35787109 0.37674316 -5.12890625 -0.24316406 C-3 -1 -3 -1 0 0 Z " fill="#D1D5DB" transform="translate(679,581)"/>
<path d="M0 0 C1.46067199 0.45082469 2.91848032 0.91093537 4.375 1.375 C5.18710937 1.63023437 5.99921875 1.88546875 6.8359375 2.1484375 C9 3 9 3 11 5 C11.1953125 8.0390625 11.1953125 8.0390625 11.125 11.625 C11.10695313 12.81351562 11.08890625 14.00203125 11.0703125 15.2265625 C11.04710937 16.14179688 11.02390625 17.05703125 11 18 C10.67 18 10.34 18 10 18 C9.99742187 17.33613281 9.99484375 16.67226563 9.9921875 15.98828125 C9.8726937 10.8316055 9.8726937 10.8316055 7.73828125 6.29296875 C5.0995929 4.09295403 2.16192772 2.33773865 -1 1 C-0.67 0.67 -0.34 0.34 0 0 Z " fill="#B7B6B6" transform="translate(501,433)"/>
<path d="M0 0 C-2.41632339 1.29231226 -4.83304396 2.58387191 -7.25 3.875 C-7.93191406 4.23980469 -8.61382813 4.60460937 -9.31640625 4.98046875 C-12.5252626 6.69393573 -15.73250878 8.39993987 -19 10 C-19 9.01 -19 8.02 -19 7 C-16.40163864 5.63354299 -13.79734444 4.28169331 -11.1875 2.9375 C-10.44951172 2.54755859 -9.71152344 2.15761719 -8.95117188 1.75585938 C-8.23896484 1.39169922 -7.52675781 1.02753906 -6.79296875 0.65234375 C-6.1383667 0.31195068 -5.48376465 -0.02844238 -4.80932617 -0.37915039 C-3 -1 -3 -1 0 0 Z " fill="#D1D5DB" transform="translate(583,631)"/>
<path d="M0 0 C1.6852084 4.07679159 0.16939007 6.83075593 -1.4375 10.75 C-1.91058594 11.92046875 -2.38367188 13.0909375 -2.87109375 14.296875 C-3.24363281 15.18890625 -3.61617187 16.0809375 -4 17 C-4.66 17 -5.32 17 -6 17 C-4.33846988 11.14340094 -2.52958084 5.5409866 0 0 Z " fill="#D1D5DB" transform="translate(201,365)"/>
<path d="M0 0 C3.91211733 1.15585285 6.8745041 2.35534962 10 5 C7 6 7 6 3.875 4.75 C1 3 1 3 0 0 Z " fill="#A8A8A8" transform="translate(462,414)"/>
<path d="M0 0 C0 3 0 3 -1.3125 4.60546875 C-1.869375 5.12753906 -2.42625 5.64960938 -3 6.1875 C-3.556875 6.71730469 -4.11375 7.24710938 -4.6875 7.79296875 C-5.120625 8.19128906 -5.55375 8.58960938 -6 9 C-6.99 8.67 -7.98 8.34 -9 8 C-6.03 5.36 -3.06 2.72 0 0 Z " fill="#D1D5DB" transform="translate(293,241)"/>
</svg>
